<?xml version="1.0" encoding="UTF-8"?>
<svg id="Calque_2" data-name="Calque 2" xmlns="http://www.w3.org/2000/svg" viewBox="0 0 1508.48 848.31">
  <defs>
    <style>
      .cls-1 {
        fill: #b3b3b3;
      }

      .cls-1, .cls-2, .cls-3, .cls-4 {
        stroke: #000;
        stroke-miterlimit: 10;
      }

      .cls-2 {
        fill: #93278f;
      }

      .cls-3 {
        fill: #29abe2;
      }

      .cls-4 {
        fill: #333;
      }
    </style>
  </defs>
  <g id="Calque_1-2" data-name="Calque 1">
    <g>
      <path class="cls-3" d="M671.85,650.61c-94.04,76.45-108.28,117.73-99.8,141.61,20.95,59,206.62,85.07,329.07,6.74,130.66-83.57,136.96-252.49,192.86-248.15,64.08,4.98,71.73,228.2,153.75,236.01,28.79,2.74,56.25-22.05,67.43-44.51,34.57-69.39-46.68-195.98-149.7-246.8-127.12-62.71-259.04,3.94-288.61,18.88-89.91,45.42-114.35,95.66-105.19,107.89,15.51,20.72,199.09-123.03,223.87-94.41,24.92,28.78-155.34,254.57-221.18,225.22-55.12-24.57,10.9-209.71-67.43-253.55-42.05-23.53-116.45-1.18-128.12,37.76-10.08,33.62,24.67,86.15,93.06,113.29Z"/>
      <path class="cls-1" d="M.49,719.96c29.98-183.97,107.79-224.81,132.01-234.98,105.27-44.19,254.23,47.75,390.75,132.01,134.2,82.83,179.62,140.97,227.06,121.45,78.83-32.44,20.04-220.37,105.61-264.02,80.39-41.01,241.13,69.31,330.03,166.33,62.27,67.97,85.63,125.43,110.89,118.81,52.17-13.68,1.35-271.71,58.08-290.42,23.89-7.88,68.1,26.28,153.13,168.97"/>
      <path class="cls-4" d="M119.3,775.41c180.49-248.4,303.53-286.4,382.83-274.58,146,21.76,183.57,218.35,322.11,219.14,140.71.8,186.71-201.55,335.31-213.86,117.29-9.72,223.4,105.19,295.7,205.94"/>
      <path class="cls-2" d="M715.99,767.48c-8.64-67.28-15.63-190.01,44.88-227.06,75.23-46.06,242.5,47.79,409.23,250.82"/>
      <path d="M286.32,338.6c1.93,0,1.93-3,0-3s-1.93,3,0,3h0Z"/>
      <path d="M406.66,269.38c13.68-9.84,27.11-20.02,40.28-30.53s26.12-21.39,38.75-32.57,24.65-22.16,36.34-33.87c10.82-10.83,21.09-22.64,27.73-36.56s9.65-30.51,8-46.29c-.21-1.96-.48-3.92-.81-5.86l-2.2,1.69c16.89,11.04,32.96,23.28,48.37,36.29s30.22,26.79,44.66,40.9c14.27,13.95,28.36,28.14,42.09,42.63,12.07,12.75,24.58,27.49,27.5,45.39,2.25,13.78-1.6,30.45-13.52,38.9-1.45,1.03-3,1.91-4.61,2.67s-.44,3.15,1.16,2.74c24.47-6.18,48.06-15.85,69.82-28.64,6.16-3.62,12.17-7.49,18.01-11.6,1.57-1.1.07-3.7-1.51-2.59-20.51,14.4-43.05,25.88-66.78,33.94-6.69,2.27-13.48,4.27-20.34,6l1.16,2.74c13.99-6.56,20.38-22.5,20.2-37.24-.23-18.08-10.67-33.86-22.18-47.02-6.43-7.35-13.35-14.26-20.17-21.24-7.25-7.42-14.53-14.8-21.9-22.11-14.66-14.54-29.64-28.78-45.26-42.3-15.55-13.46-31.75-26.22-48.77-37.79-2.12-1.44-4.26-2.87-6.41-4.27-1.2-.78-2.41.51-2.2,1.69,2.62,15.42.78,31.5-5.16,45.96s-15.68,26.18-26.26,37.06c-11.24,11.56-23.2,22.47-35.22,33.21s-24.97,21.77-37.86,32.18c-12.91,10.43-26.07,20.53-39.49,30.3-1.64,1.2-3.29,2.39-4.94,3.57-1.55,1.12-.06,3.72,1.51,2.59h0Z"/>
      <path d="M1035.96,165.33c1.93,0,1.93-3,0-3s-1.93,3,0,3h0Z"/>
      <path d="M1035.64,163.64c-21.75,3.11-42.46,10.93-61.86,21.07s-38.33,22.97-56.65,35.71-36.72,25.84-56.11,37.15c-21.48,12.53-44.32,22.67-68.01,30.25-23.8,7.62-48.44,12.68-73.33,14.94-3.04.28-6.09.51-9.14.71-1.92.12-1.93,3.12,0,3,24.99-1.61,49.8-5.94,73.85-12.89,23.97-6.93,47.22-16.44,69.15-28.36,20.02-10.88,38.78-23.88,57.46-36.89,18.44-12.84,36.87-25.81,56.49-36.8s39.27-19.38,60.75-23.61c2.72-.54,5.46-1,8.21-1.39,1.9-.27,1.09-3.16-.8-2.89h0Z"/>
      <path d="M1195.76,227.23c-1.21.35-2.43.69-3.64,1.04l-10.24,2.93-15.78,4.51-20.28,5.8c-7.91,2.26-15.82,4.52-23.73,6.79-8.75,2.5-17.5,5.01-26.26,7.51-9.17,2.62-18.34,5.24-27.5,7.86s-18.54,5.3-27.82,7.95-18.05,5.16-27.08,7.74c-8.43,2.41-16.87,4.82-25.3,7.23-7.49,2.14-14.98,4.28-22.47,6.43l-18.6,5.32c-4.56,1.3-9.12,2.61-13.68,3.91l-7.72,2.21c-.43.12-.87.24-1.3.37-2.28.69-4.35,2-5.6,4.08-2,3.32-.68,7.17,1.41,10.09,2.49,3.47,5.86,6.32,8.89,9.3,3.31,3.26,6.63,6.52,9.95,9.77,6.64,6.51,13.3,12.99,20,19.44,13.39,12.89,26.94,25.61,40.82,37.98,13.29,11.84,26.79,23.55,41.11,34.15,13.7,10.14,28.37,19.16,44.32,25.3,15.84,6.1,33.13,9.26,50.1,7.74,8.13-.73,16.13-2.52,23.72-5.52,1.77-.7,1-3.6-.8-2.89-15.75,6.23-33.1,7.1-49.67,4.13-16.77-3-32.52-9.78-47.07-18.51s-27.86-19.26-40.79-30.18c-14.05-11.87-27.71-24.2-41.14-36.76-13.46-12.59-26.69-25.43-39.85-38.33-3.26-3.2-6.52-6.4-9.78-9.6-2.92-2.87-6.43-5.67-8.37-9.35-.76-1.44-1.22-3.17-.54-4.72.73-1.67,2.37-2.68,4.05-3.19.08-.03.17-.05.25-.07,1.79-.52,3.58-1.02,5.37-1.54,3.86-1.11,7.73-2.21,11.59-3.32,5.6-1.6,11.2-3.2,16.8-4.8,6.99-2,13.99-4,20.98-6,8.01-2.29,16.02-4.58,24.03-6.87l26.28-7.51c9.14-2.61,18.27-5.22,27.41-7.84s18.27-5.22,27.4-7.84,17.75-5.07,26.62-7.61l24.7-7.06,21.75-6.22c5.91-1.69,11.82-3.38,17.72-5.07,4.28-1.22,8.56-2.45,12.84-3.67l6.84-1.96c.29-.08.57-.16.86-.24,1.85-.53,1.07-3.43-.8-2.89h0Z"/>
      <path d="M177.97,249.48c20.6,20.17,41.24,40.32,62.79,59.48,21.32,18.95,43.56,36.96,67.33,52.77,13.44,8.94,27.36,17.14,41.78,24.4,1.15.58,2.56-.38,2.2-1.69-6.58-24.61-13.16-49.23-19.74-73.84s-13.16-49.23-19.74-73.84c-3.7-13.84-7.4-27.67-11.1-41.51l-2.74,1.16c8.68,12.96,17.36,25.93,26.15,38.82,8.79,12.9,17.69,25.73,26.8,38.4,9.08,12.64,18.38,25.13,27.97,37.39,9.54,12.19,19.37,24.15,29.6,35.78s20.92,23.02,32.03,33.91c1.4,1.37,2.8,2.73,4.21,4.09s3.52-.78,2.12-2.12c-11.16-10.73-21.88-21.91-32.21-33.44-10.32-11.53-20.25-23.42-29.86-35.54-9.65-12.17-18.98-24.59-28.09-37.17s-18.01-25.32-26.79-38.13-17.43-25.71-26.07-38.61c-1.09-1.63-2.18-3.25-3.27-4.88-.92-1.38-3.2-.55-2.74,1.16,6.58,24.61,13.16,49.23,19.74,73.84,6.58,24.61,13.16,49.23,19.74,73.84,3.7,13.84,7.4,27.67,11.1,41.51l2.2-1.69c-25.48-12.82-49.36-28.62-71.88-46.1-22.64-17.58-43.96-36.78-64.73-56.5-11.67-11.08-23.18-22.33-34.68-33.58-1.38-1.35-3.5.77-2.12,2.12h0Z"/>
      <path d="M95.18,404.17c7.9,6.11,15.79,12.23,23.69,18.34,3.95,3.06,7.9,6.11,11.84,9.17s7.44,5.93,11.3,8.69c3.17,2.27,6.95,4.37,10.97,4.3,3.34-.06,6.75-1.59,8.71-4.34,2.29-3.22,1.42-7.19-.73-10.24-2.35-3.33-5.38-6.26-8.12-9.26-11.11-12.15-22.47-24.1-32.7-37.01s-19.03-26.44-24.83-41.61c-3.18-8.33-5.84-17.32-4.86-26.32.78-7.18,4.52-14.41,10.92-18.11,1.53-.89,3.16-1.49,4.88-1.88,1.88-.42,1.09-3.31-.8-2.89-6.96,1.56-12.48,6.93-15.42,13.28-3.59,7.79-3.27,16.6-1.37,24.8,3.66,15.78,11.8,30.57,21.03,43.74,9.3,13.28,20.14,25.39,31.09,37.32,5.48,5.97,11.14,11.82,16.41,17.98,2.34,2.74,4.34,6.52,1.2,9.46-2.57,2.4-6.25,2.48-9.38,1.32-4.13-1.52-7.62-4.71-11.05-7.36l-11.65-9.02c-7.76-6.01-15.53-12.02-23.29-18.03l-5.72-4.43c-.65-.5-1.49-.62-2.12,0-.52.51-.64,1.63,0,2.12h0Z"/>
      <path d="M413.63,463.89c27.61,2.07,55.41,1.43,82.9-1.86,27.47-3.29,54.63-9.17,80.97-17.63,14.75-4.74,29.24-10.28,43.39-16.58,1.76-.78.24-3.37-1.51-2.59-25.11,11.17-51.31,19.86-78.09,26-26.78,6.14-54.14,9.71-81.61,10.62-15.36.51-30.73.19-46.06-.96-1.93-.14-1.92,2.86,0,3h0Z"/>
      <path d="M832.64,420.1c26.41.27,52.82-1.56,78.95-5.45,7.42-1.11,14.82-2.38,22.19-3.82,1.89-.37,1.09-3.26-.8-2.89-25.82,5.04-52.02,8.03-78.31,8.91-7.34.25-14.68.33-22.03.25-1.93-.02-1.93,2.98,0,3h0Z"/>
      <path d="M1224.56,425.75c15.88,6.47,32.38,11.38,49.22,14.62,8.39,1.62,16.87,2.83,25.38,3.63,8.05.76,16.25,1.38,24.34,1.04,7.73-.33,15.82-1.98,21.47-7.67,1.36-1.37-.76-3.49-2.12-2.12-4.84,4.86-11.76,6.36-18.39,6.74-7.78.44-15.7-.15-23.45-.82-16.56-1.44-32.97-4.5-48.95-9.07-9.07-2.6-17.98-5.69-26.72-9.24-1.79-.73-2.56,2.17-.8,2.89h0Z"/>
      <path d="M1187.22,46.08c13.76,13.22,28.7,25.21,44.58,35.8s32.6,19.7,50.06,27.27c9.19,3.99,18.86,7.67,29.01,7.74,8.69.06,17.1-2.79,24.47-7.27,7.51-4.56,14.03-10.66,19.72-17.31,5.99-7.01,11.28-14.64,15.78-22.69,9.06-16.19,14.95-34.07,17.29-52.47.28-2.23.51-4.47.69-6.71.15-1.93-2.82-1.9-3,0-2.43,26.1-4.87,52.19-7.3,78.29-.69,7.37-1.37,14.75-2.06,22.12-.18,1.92,2.82,1.91,3,0,2.43-26.1,4.87-52.19,7.3-78.29.69-7.37,1.37-14.75,2.06-22.12h-3c-1.43,18.02-6.41,35.74-14.5,51.89-4.03,8.04-8.81,15.72-14.3,22.84s-11.18,13.26-18.09,18.41-14.34,8.84-22.66,9.97c-9.75,1.32-19.39-1.5-28.35-5.1-17.26-6.93-33.85-15.84-49.5-25.85-15.62-9.99-30.36-21.34-44-33.89-1.7-1.57-3.39-3.16-5.06-4.76-1.39-1.34-3.52.78-2.12,2.12h0Z"/>
      <path d="M793.49,2.97c-7,19.22-16.75,37.39-28.75,53.95-11.96,16.5-26.2,31.36-42.16,44.03-9,7.15-18.57,13.56-28.58,19.2-1.68.95-.17,3.54,1.51,2.59,18.09-10.19,34.72-22.96,49.31-37.74,14.49-14.68,27.02-31.34,37.03-49.38,5.67-10.21,10.53-20.88,14.52-31.85.66-1.82-2.24-2.6-2.89-.8h0Z"/>
      <path d="M805.89,153.66c1.95-4.74,2.44-9.93,1.6-14.97-.13-.8-1.12-1.25-1.85-1.05-.85.23-1.18,1.04-1.05,1.85.75,4.51.14,9.15-1.6,13.38-.31.75.33,1.65,1.05,1.85.86.24,1.54-.3,1.85-1.05h0Z"/>
      <path d="M931.3,150.52c13.78-22.68,29.31-44.29,46.44-64.55,4.82-5.7,9.76-11.3,14.83-16.78,1.31-1.42-.81-3.54-2.12-2.12-18.11,19.64-34.7,40.67-49.57,62.87-4.2,6.27-8.25,12.63-12.17,19.07-1.01,1.65,1.59,3.16,2.59,1.51h0Z"/>
      <path d="M258.1,2.2c9.71,14.5,19.8,28.74,30.25,42.72s21.22,27.64,32.36,41.03c6.3,7.58,12.72,15.07,19.24,22.46,1.28,1.45,3.39-.68,2.12-2.12-11.49-13.03-22.65-26.35-33.45-39.95-10.77-13.56-21.19-27.41-31.25-41.52-5.68-7.97-11.24-16.01-16.68-24.14-1.07-1.6-3.67-.1-2.59,1.51h0Z"/>
      <path d="M116.49,59.54c1.63,24.89,3.27,49.77,4.9,74.66.4,6.03,1.08,12.11,1.11,18.15.01,2.56-.24,5.23-1.59,7.47-1.25,2.09-3.3,3.52-5.41,4.65-4.68,2.51-9.9,4.13-15,5.5s-10.61,2.48-15.96,3.49c-12.01,2.27-24.14,4.39-35.33,9.53-1.02.47-.94,2.1,0,2.59,26.14,13.65,54.26,23.46,83.22,28.98,8.16,1.55,16.38,2.76,24.64,3.65,1.92.21,1.9-2.8,0-3-28.89-3.1-57.35-10.46-84.13-21.74-7.55-3.18-14.96-6.69-22.22-10.48v2.59c20.35-9.35,43.76-8.24,64.16-17.48,4.67-2.12,8.85-5.25,10.09-10.49.6-2.54.57-5.17.43-7.76-.17-3.07-.4-6.13-.6-9.19-.84-12.78-1.68-25.55-2.51-38.33-.94-14.27-1.87-28.54-2.81-42.81-.13-1.92-3.13-1.93-3,0h0Z"/>
      <path d="M355.28,153.28c11.38-.95,22.73-2.4,33.98-4.35,10.36-1.79,20.83-3.76,30.87-6.92,8.87-2.79,17.55-6.83,24.26-13.41,6.89-6.75,11.08-15.64,14.27-24.62,4.07-11.44,7.32-23.21,10.89-34.82.57-1.85-2.33-2.64-2.89-.8-3.15,10.25-6.16,20.55-9.5,30.74-2.87,8.75-6.35,17.64-12.41,24.71s-14.26,11.48-22.92,14.47c-9.48,3.27-19.45,5.2-29.29,7.02-12.33,2.27-24.77,3.92-37.26,4.97-1.91.16-1.93,3.16,0,3h0Z"/>
      <path d="M178.47,16.82c1.93,0,1.93-3,0-3s-1.93,3,0,3h0Z"/>
      <path d="M176.29,16.58c9.33,12.48,19.03,24.7,29.09,36.61s20.49,23.55,31.26,34.85,21.86,22.29,33.28,32.93,23.27,21.04,35.36,31.02c5.99,4.94,12.05,9.8,18.19,14.56,5.81,4.51,12.08,9.35,19.51,10.69,1.77.32,3.56.45,5.36.33.93-.06,1.76-.92,1.45-1.9-1.13-3.52-2.26-7.05-3.39-10.57-.59-1.83-3.48-1.05-2.89.8,1.13,3.52,2.26,7.05,3.39,10.57l1.45-1.9c-7.53.48-14.16-3.7-19.97-8.03-6.15-4.58-12.11-9.43-18.05-14.29-11.91-9.74-23.54-19.83-34.86-30.25-11.32-10.42-22.33-21.18-33.02-32.25s-21.05-22.46-31.06-34.14-19.72-23.68-29.03-35.96c-1.16-1.53-2.32-3.07-3.47-4.61s-3.75-.03-2.59,1.51h0Z"/>
      <path d="M505.39,330.76c11.01-7.68,24.1-12.04,37.47-12.92,13.34-.88,26.98,1.55,39.01,7.45,3.41,1.67,6.69,3.61,9.79,5.8,2.77,1.96,7.24,5.17,6.12,9.12-.53,1.86,2.37,2.65,2.89.8,1.09-3.83-1.24-7.32-3.99-9.8s-5.78-4.36-8.86-6.15c-6.14-3.56-12.81-6.22-19.69-7.95-13.92-3.5-28.81-3.28-42.59.75-7.72,2.25-15.08,5.71-21.68,10.31-1.57,1.1-.07,3.7,1.51,2.59h0Z"/>
      <path d="M726.56,480.04h61.88c1.93,0,1.93-3,0-3h-61.88c-1.93,0-1.93,3,0,3h0Z"/>
      <path d="M1116.26,79.56c9.01,14.71,23.13,26,39.36,31.81,4.6,1.65,9.36,2.83,14.19,3.52.81.12,1.6-.2,1.85-1.05.2-.7-.25-1.73-1.05-1.85-16.51-2.37-31.92-10.54-43.27-22.75-3.2-3.44-6.03-7.19-8.49-11.2-1.01-1.64-3.6-.14-2.59,1.51h0Z"/>
      <path d="M517.93,287.32c1.93,0,1.93-3,0-3s-1.93,3,0,3h0Z"/>
      <path d="M602.12,215.37c.53.74,1.27,1.3,2.19,1.44s1.85.04,2.66-.44c.45-.27.79-.61,1.08-1.03.31-.45.44-.96.5-1.49.12-.99-.32-1.96-.95-2.69-.66-.77-1.77-1.32-2.8-1.2-.34.04-.63.1-.91.32-.26.2-.45.46-.54.78-.39,1.43.09,2.9,1.05,3.99.48.54,1.09.92,1.76,1.19s1.4.28,2.12.18c.46-.07.97-.59,1.05-1.05.12-.71.13-1.44-.13-2.13s-.6-1.26-1.11-1.77-1.11-.86-1.78-1.1-1.42-.25-2.13-.12c-.35.06-.72.39-.9.69-.19.32-.27.8-.15,1.16s.34.71.69.9c.38.2.74.22,1.16.15.04,0,.08-.01.12-.02l-.4.05c.21-.02.41-.02.62,0l-.4-.05c.25.03.48.1.71.19l-.36-.15c.25.11.48.24.69.41l-.3-.23c.21.17.4.36.57.57l-.23-.3c.16.21.3.44.41.69l-.15-.36c.09.23.16.46.2.71l-.05-.4c.02.21.03.41,0,.62l.05-.4s-.01.08-.02.12l1.05-1.05h-.06c.13,0,.27-.03.4-.05-.2.02-.39.02-.59,0l.4.05c-.23-.03-.46-.09-.68-.18l.36.15c-.24-.1-.46-.23-.66-.39l.3.23c-.2-.16-.39-.34-.55-.55l.23.3c-.17-.22-.31-.46-.42-.72l.15.36c-.09-.22-.15-.44-.19-.68l.05.4c-.03-.22-.03-.43,0-.64l-.05.4c.02-.12.04-.23.07-.35l-1.45,1.1c.15-.02.3-.02.45,0l-.4-.05c.17.03.32.07.48.13l-.36-.15c.15.07.3.15.43.25l-.3-.23c.16.13.31.27.44.44l-.23-.3c.13.17.23.34.31.54l-.15-.36c.07.17.12.35.15.54l-.05-.4c.02.17.02.33,0,.49l.05-.4c-.02.15-.06.29-.12.43l.15-.36c-.06.12-.12.24-.2.34l.23-.3c-.09.12-.2.22-.31.31l.3-.23c-.15.11-.3.2-.47.27l.36-.15c-.19.08-.38.13-.58.16l.4-.05c-.22.03-.44.03-.65,0l.4.05c-.18-.03-.36-.07-.53-.14l.36.15c-.15-.07-.29-.15-.42-.25l.3.23c-.1-.08-.2-.18-.28-.28l.23.3s-.04-.05-.06-.08c-.23-.33-.5-.58-.9-.69-.36-.1-.84-.05-1.16.15-.63.41-1.03,1.37-.54,2.05h0Z"/>
      <path d="M514.45,286.3c1.37,4.96,8.43,5.43,11.7,2.14,1.01-1.01,1.56-2.34,1.61-3.76.02-.47-.29-1.1-.74-1.3-3.78-1.61-8.25-1.31-11.63,1.1-.66.47-.97,1.31-.54,2.05.38.65,1.39,1.01,2.05.54s1.48-.92,2.05-1.13c.35-.13.71-.24,1.08-.33.21-.05.42-.1.63-.14.11-.02.21-.04.32-.05-.13.02-.11.01.08,0,.8-.08,1.61-.09,2.41.01-.21-.03.34.06.4.07.21.04.42.09.63.15s.41.12.62.19c.06.02.55.21.39.14l-.74-1.3c0,.1-.01.2-.02.3,0,.26.07-.3-.01.03-.02.09-.04.18-.07.27-.02.05-.15.45-.06.21s-.03.06-.06.11c-.05.09-.1.19-.16.28-.05.08-.1.15-.15.22.16-.27.07-.09-.05.05-.13.15-.28.28-.42.41-.22.2.09-.05.01,0-.11.06-.2.14-.31.21-.17.11-.35.21-.54.3-.09.04-.17.08-.26.12.3-.14.07-.03-.09.02-.4.14-.81.22-1.23.3.29-.05.15-.02-.04,0-.1,0-.2.02-.29.02-.23.01-.46.01-.68,0-.11,0-.23-.02-.34-.03-.28-.01.29.06.02,0-.22-.04-.44-.08-.65-.14-.2-.05-.38-.13-.58-.19-.08-.03.28.14.02,0-.11-.06-.22-.11-.32-.17-.09-.05-.18-.11-.27-.17-.05-.03-.1-.07-.15-.11.06.04.23.2.09.06-.16-.16-.31-.33-.47-.49-.11-.11.09.12.1.12-.03-.05-.07-.1-.1-.15-.06-.11-.13-.21-.19-.32-.02-.04-.04-.09-.06-.13-.09-.13.11.34.02.05-.04-.13-.08-.25-.12-.38-.51-1.86-3.41-1.07-2.89.8h0Z"/>
      <path d="M631.18,303.22c20.49-12.06,34.88-33.59,38.91-56.96,1.14-6.62,1.48-13.35.9-20.04-.16-1.9-2.95-1.96-3,0-.34,14.31-4.09,28.43-10.6,41.16-6.52,12.76-15.71,24.11-26.91,33.06-6.3,5.03-13.27,9.23-20.65,12.47l1.51,2.59c8.09-5.21,16.18-10.42,24.27-15.63,1.62-1.04.12-3.64-1.51-2.59-8.09,5.21-16.18,10.42-24.27,15.63-1.66,1.07-.22,3.35,1.51,2.59,13.45-5.92,25.41-15.04,34.94-26.2s16.78-24.34,20.89-38.47c2.33-7.99,3.62-16.29,3.82-24.61h-3c1.98,22.96-6.91,46.27-23.11,62.57-4.55,4.58-9.65,8.56-15.22,11.84-1.66.98-.16,3.57,1.51,2.59h0Z"/>
    </g>
  </g>
</svg>