<?xml version="1.0" encoding="UTF-8"?>
<svg id="Calque_2" data-name="Calque 2" xmlns="http://www.w3.org/2000/svg" viewBox="0 0 800.25 643.99">
  <defs>
    <style>
      .cls-1 {
        fill: #f1f1f1;
      }

      .cls-2 {
        isolation: isolate;
        opacity: .2;
      }

      .cls-3 {
        fill: #2f2e41;
      }

      .cls-4 {
        fill: #e6e6e6;
      }

      .cls-5 {
        fill: #ff6583;
      }

      .cls-6 {
        fill: #3f3d56;
      }

      .cls-7 {
        fill: #ed9da0;
      }

      .cls-8 {
        fill: #e5e5e5;
      }

      .cls-9 {
        fill: #29abe2;
      }

      .cls-10 {
        fill: #6c63ff;
      }

      .cls-11 {
        fill: #cbcbcb;
      }
    </style>
  </defs>
  <g id="Calque_1-2" data-name="Calque 1">
    <g>
      <path class="cls-7" d="M606.56,345.86l16.03-2.91,4,12.32-16.12,5.24-3.92-14.65Z"/>
      <path class="cls-4" d="M495.56,642.35s-12.71-31.29,25.43-54.76l-25.43,54.76Z"/>
      <path class="cls-4" d="M509.11,641.78s-3.88-22.3-33.89-22.11l33.89,22.11Z"/>
      <path class="cls-4" d="M766.66,642.35s-16.8-41.34,33.59-72.35l-33.59,72.35Z"/>
      <path class="cls-4" d="M746.01,641.6s-5.12-29.47-44.78-29.21"/>
      <g>
        <g>
          <path class="cls-10" d="M489.19,183.52l-26.31-13.98,1.97-1.05,26.31,13.98-1.97,1.04Z"/>
          <path class="cls-10" d="M466.24,183.52l-1.97-1.04,26.31-13.98,1.97,1.05-26.31,13.98Z"/>
        </g>
        <rect class="cls-11" x="344.86" y="110.06" width="1.76" height="5.26" transform="translate(87.77 369) rotate(-62.87)"/>
        <path class="cls-11" d="M440.94,162.47l-9.33-4.78.8-1.56,9.33,4.78-.8,1.56ZM422.29,152.91l-9.33-4.78.8-1.56,9.33,4.78-.8,1.56ZM403.64,143.35l-9.33-4.78.8-1.56,9.33,4.78-.8,1.56ZM384.98,133.8l-9.33-4.78.8-1.56,9.33,4.78-.8,1.56ZM366.33,124.24l-9.33-4.78.8-1.56,9.33,4.78-.8,1.56Z"/>
        <rect class="cls-11" x="452.14" y="165.04" width="1.76" height="5.26" transform="translate(97.2 494.37) rotate(-62.87)"/>
        <path class="cls-8" d="M97.27,228.21c0,.55-.02,1.09-.05,1.63-.2,3.11-.98,6.15-2.32,8.97-.01.02-.02.05-.03.07-.06.13-.13.26-.19.39-.4.8-.83,1.57-1.32,2.32-4.45,6.98-12.1,11.28-20.38,11.47l.25,14.13,3.2-1.69.57,1.09-3.75,1.98.46,26.25v.35s-2.47.55-2.47.55v-.35s.79-42.31.79-42.31c-6.63-.1-12.94-2.84-17.53-7.63-.16-.16-.31-.33-.46-.49l-.02-.02c-1.89-2.06-3.42-4.43-4.53-7,.02.03.05.05.07.08-5.18-12.11-.01-26.16,11.79-32.03l.26-.13c11.65-5.61,25.66-1.36,32.23,9.78.15.25.3.51.44.77,1.97,3.63,2.99,7.69,2.99,11.82h0Z"/>
        <circle class="cls-9" cx="93.93" cy="206.32" r="32.57"/>
        <path class="cls-2" d="M69.88,184.56c-7.07,16.54.61,35.69,17.15,42.76,12.87,5.5,27.82,2.17,37.13-8.28-7.07,16.54-26.21,24.22-42.76,17.15-16.54-7.07-24.22-26.21-17.15-42.76,1.39-3.24,3.29-6.23,5.63-8.86h0Z"/>
        <path class="cls-6" d="M95.69,297.06l-3.33-.93v-.36s1.01-54.18,1.01-54.18l.05-2.7v-.08l.17-9.47.25-13.72h0l.17-9.3h.09l.18,10.08.23,13.11.16,9.3v.45h0l.32,18.14.03,1.8.65,37.49v.37Z"/>
        <rect class="cls-6" x="93.84" y="256.52" width="6.09" height="1.61" transform="translate(-108.72 74.76) rotate(-27.77)"/>
        <path d="M516.16,100.9c-41.11-2.43-82.35-1.79-123.37,1.9-19.77,1.79-39.85,3.72-59.26,8.03-15.63,3.47-33.77,9.34-43.51,23.02-4.13,5.59-5.42,12.78-3.47,19.45,2.32,7.8,8.1,14.28,14.25,19.37,14.16,11.7,31.72,18.5,47.42,27.8,28.65,16.97,54.87,39.83,71.7,68.89,7.41,12.78,14.45,29.78,6.2,43.87-8.08,13.8-26.11,18.55-40.82,20.8-18.43,2.81-37.42,2.05-55.94.47-20.3-1.89-40.48-4.85-60.46-8.86-39.15-7.52-77.95-17.08-117.64-21.43-19.9-2.34-39.98-2.92-59.98-1.73-18.07,1.22-36.29,4.08-53.26,10.59-13.08,5.02-27.02,12.62-34.09,25.28-6.81,12.21-4.15,26.29,3.26,37.56,8.92,13.55,22.84,22.84,37.3,29.63,16.47,7.73,34.09,12.74,51.72,17,8.95,2.16,17.94,4.11,26.93,6.06,1.88.41,2.68-2.48.8-2.88-18.14-3.92-36.33-7.85-54.02-13.53-16.37-5.25-33.12-11.98-46.53-23-10.85-8.92-21.16-21.95-20.52-36.76.65-14.93,13.17-25.36,25.45-31.78,15.35-8.02,32.78-11.93,49.87-13.97,19.56-2.18,39.29-2.45,58.91-.8,39.6,3.01,78.32,12.04,117.15,19.9,37.72,7.64,76.62,14.72,115.28,12.76,15.32-.78,31.74-2.97,45.27-10.71,6.19-3.54,11.78-8.54,14.93-15.03,2.84-6.18,3.73-13.08,2.57-19.78-2.19-14.72-10.94-28.38-19.66-40.1-9.56-12.73-20.66-24.22-33.03-34.24-13.58-10.93-28.23-20.47-43.71-28.48-8.21-4.32-16.54-8.48-24.37-13.49-7.5-4.8-14.91-10.58-19.49-18.38-3.96-6.74-4.69-14.44-.56-21.27,4.18-6.92,11.37-11.74,18.46-15.26,17.09-8.49,36.96-10.77,55.67-13.1,40.15-4.98,80.62-7,121.07-6.04,9.83.23,19.66.64,29.48,1.22,1.92.11,1.92-2.88,0-2.99h0Z"/>
        <path class="cls-6" d="M490.08,5.04l6.21-4.97c-4.82-.53-6.81,2.1-7.62,4.18-3.77-1.57-7.87.49-7.87.49l12.42,4.51c-.63-1.67-1.72-3.13-3.15-4.21Z"/>
        <path class="cls-6" d="M459.94,20.76l6.21-4.97c-4.82-.53-6.81,2.1-7.62,4.18-3.77-1.57-7.87.49-7.87.49l12.42,4.51c-.63-1.67-1.72-3.13-3.15-4.21Z"/>
        <path class="cls-6" d="M490.08,45.66l6.21-4.97c-4.82-.53-6.81,2.1-7.62,4.18-3.77-1.57-7.87.49-7.87.49l12.43,4.52c-.63-1.67-1.72-3.13-3.15-4.21h0Z"/>
        <g>
          <circle class="cls-5" cx="396.98" cy="34.31" r="18.71"/>
          <path class="cls-9" d="M455.66,91.96h-91.79c-.11,0-.23,0-.34-.03l43.41-75.19c.83-1.46,2.68-1.98,4.14-1.15.48.27.88.67,1.15,1.15l29.13,50.46,1.4,2.41,12.89,22.35Z"/>
          <path class="cls-9" d="M506.76,91.96h-79.39l15.38-22.35,1.11-1.61,20.04-29.12c1.39-1.75,3.95-2.04,5.7-.65.11.09.22.19.33.29.1.11.2.23.29.36l36.54,53.08Z"/>
        </g>
        <path class="cls-1" d="M375.81,264.41c8.7,4.35,14,10.09,14,16.39,0,13.57-24.55,24.57-54.84,24.57-13.17,0-25.25-2.08-34.7-5.55,10.04,5.02,24.62,8.18,40.85,8.18,30.29,0,54.84-11,54.84-24.57,0-7.67-7.86-14.52-20.15-19.02Z"/>
        <path class="cls-1" d="M395.16,273.73c9.82,4.91,15.79,11.39,15.79,18.49,0,15.31-27.71,27.72-61.89,27.72-14.86,0-28.49-2.35-39.16-6.26,11.33,5.66,27.78,9.23,46.09,9.23,34.18,0,61.89-12.41,61.89-27.72,0-8.65-8.86-16.38-22.72-21.46Z"/>
        <path class="cls-1" d="M368.4,268.51c6.13,3.06,9.86,7.11,9.86,11.55,0,9.56-17.3,17.31-38.64,17.31-8.31.11-16.58-1.21-24.45-3.91,7.07,3.54,17.34,5.76,28.78,5.76,21.34,0,38.64-7.75,38.64-17.31,0-5.4-5.53-10.23-14.19-13.4Z"/>
        <path class="cls-6" d="M282.28,266.76s1.35,19.69,39.96,19.69,50.14-19.69,50.14-19.69h-90.09Z"/>
        <path class="cls-6" d="M337.08,215.11c-5.57-4.23-12.57-6.15-19.52-5.34,14.6,3.53,23.58,18.23,20.05,32.83-2.68,11.09-12,19.33-23.34,20.63,14.6,3.53,29.3-5.44,32.83-20.04,2.55-10.52-1.39-21.55-10.02-28.08Z"/>
        <rect class="cls-6" x="321.8" y="206.21" width="2.63" height="62.66"/>
        <path class="cls-11" d="M497.44,159.65v-.02s-.05-1.53-.05-1.53l8.25-11.97-8.24,10.83-.03.32-.28-12.24,7.12-12.41-7.14,10.26.08-25.36v-.08.08l-.47,19.98-6.49-8.12,6.47,9.84-.14,10.95-5.97-10.68,5.95,12.29-.08,6.09-.22,16.86-.02,1.26c.55,0,1.09,0,1.63-.03l-.37-16.2v-.12Z"/>
        <path class="cls-11" d="M457.95,164.92v-.02s-.05-1.53-.05-1.53l8.25-11.97-8.23,10.83-.03.32-.28-12.24,7.12-12.41-7.14,10.26.07-25.36v-.08.08l-.47,19.98-6.49-8.12,6.47,9.84-.14,10.95-5.97-10.68,5.95,12.29-.08,6.09-.22,16.86-.02,1.26c.55,0,1.09,0,1.63-.03l-.37-16.2v-.13Z"/>
        <path class="cls-11" d="M477.25,148.25v-.02s-.05-1.53-.05-1.53l8.25-11.97-8.24,10.83-.03.32-.28-12.24,7.12-12.41-7.14,10.26.08-25.36v-.08.08l-.47,19.98-6.49-8.12,6.47,9.84-.14,10.95-5.97-10.68,5.95,12.29-.08,6.09-.22,16.86-.02,1.26c.55,0,1.09,0,1.63-.03l-.37-16.2v-.12Z"/>
        <circle class="cls-9" cx="151.12" cy="429.1" r="10.53"/>
      </g>
      <path class="cls-7" d="M683.99,623.47l-9.75,3.62-18.61-35.88,14.39-5.34,13.97,37.6Z"/>
      <path class="cls-3" d="M689.99,632l-31.43,11.68-.15-.4c-2.51-6.76.93-14.27,7.69-16.78h0l19.2-7.13,4.69,12.64Z"/>
      <path class="cls-7" d="M588.05,633.6h-10.4l-4.95-40.11h15.35v40.11Z"/>
      <path class="cls-3" d="M589.86,643.68h-33.53v-.42c0-7.21,5.84-13.05,13.05-13.05h20.48v13.48Z"/>
      <path class="cls-3" d="M635.67,355.39l-3.4-6.78-28.84,14.42.85,5.94-5.51,7.21s-9.33,5.09-7.63,22.05l1.7,16.12,2.12,20.78-14.84,51.32-7.64,67.86-5.51,54.71,26.72-1.27,24.6-89.07,43.26,95.85,29.69-7.63-40.72-95.01-5.09-39.87s3.39-21.21-12.72-35.63l2.54-7.63v-9.41l8.48-44.88-8.05-19.09Z"/>
      <rect class="cls-2" x="593.23" y="485.11" width="68.75" height="1" transform="translate(-10.13 957.82) rotate(-74.25)"/>
      <rect class="cls-6" x="593.25" y="435.13" width="41.56" height="4.24"/>
      <ellipse class="cls-6" cx="593.25" cy="437.68" rx="1.7" ry="4.24"/>
      <circle class="cls-7" cx="611.99" cy="324.58" r="22.61"/>
      <circle class="cls-3" cx="646.6" cy="296.51" r="20"/>
      <path class="cls-3" d="M671.98,294.37c3.12,10.59-2.93,21.72-13.53,24.84-10.59,3.12-21.72-2.93-24.84-13.53-.3-1.02-.52-2.06-.65-3.11,3.12,10.59,14.25,16.65,24.84,13.53,9.42-2.78,15.43-11.98,14.18-21.73Z"/>
      <path class="cls-3" d="M592.95,318.31c-1.47,12.98,7.85,24.69,20.83,26.17,12.98,1.47,24.69-7.85,26.17-20.83s-7.85-24.69-20.83-26.17c-4.11-.47-8.26.15-12.05,1.79-3.95-3.19-8.85-2.2-12.83,1.16-4.5,3.8-5.84,6.41-9.33,12.67,3.43.48,4.61,4.73,8.05,5.21Z"/>
      <path class="cls-9" d="M676.07,386.3c-.25,6.7-.76,19.89-.76,20.56,0,.71-10,21.41-14.32,30.32h0c-.31.63-.58,1.2-.83,1.7-.68,1.41-2.12,2.3-3.69,2.27l-18.88-.34c-2.15-.04-3.89-1.76-3.95-3.92l-2.11-83.05c-.03-1.13.87-2.08,2-2.11.02,0,.03,0,.05,0h24.35c2.1,0,4.01,1.2,4.92,3.09l11.68,24.17c1.1,2.27,1.62,4.78,1.52,7.3h0Z"/>
      <path class="cls-9" d="M633.32,431.2c-4.84-2.94-9.2-6.61-12.9-10.9-8.6-9.67-13.83-21.88-14.91-34.78-.96-11.04,1.23-19.24,6.51-24.39,6.71-6.54,15.84-5.59,16.23-5.55l.41.05,6.19,5.24-1.75,2.07-5.54-4.68c-1.7-.08-8.61-.1-13.67,4.84-4.65,4.55-6.56,12.02-5.68,22.19,1.02,12.28,5.99,23.91,14.16,33.13,3.53,4.08,7.66,7.59,12.25,10.41l-1.31,2.37Z"/>
      <rect class="cls-6" x="635.2" y="403.03" width="33.69" height=".9" transform="translate(-67.77 139.24) rotate(-11.59)"/>
      <rect class="cls-6" x="646.88" y="351.73" width=".9" height="52.52" transform="translate(-14.96 26.86) rotate(-2.35)"/>
      <path class="cls-6" d="M676.07,386.31c-.25,6.7-.76,19.89-.76,20.56,0,.71-10,21.41-14.32,30.32l8.05-46.75c.63-3.66,3.19-6.7,6.69-7.95.27,1.25.38,2.53.33,3.81Z"/>
      <path class="cls-7" d="M626.6,484.29c2.69-3.47,2.06-8.47-1.41-11.16-.37-.29-.76-.54-1.18-.76l1.64-18.1-10.76-3.68-1.95,25.6c-1.78,4.05.06,8.76,4.11,10.54,3.37,1.48,7.31.47,9.55-2.44h0Z"/>
      <path class="cls-11" d="M628,466.77l-19.06-.69.81-91.93c-.03-5.34,3.36-10.09,8.41-11.81,2.3-.76,4.79-.77,7.09,0,5.37,1.82,8.83,7.04,8.4,12.7l-5.64,91.74Z"/>
      <path class="cls-11" d="M795.25,643.99h-379.82c-.55-.04-.96-.52-.92-1.07.04-.49.43-.88.92-.92h379.82c.55-.04,1.03.37,1.07.92.04.55-.37,1.03-.92,1.07-.05,0-.1,0-.15,0Z"/>
    </g>
  </g>
</svg>