<?xml version="1.0" encoding="UTF-8"?>
<svg id="Calque_2" data-name="Calque 2" xmlns="http://www.w3.org/2000/svg" xmlns:xlink="http://www.w3.org/1999/xlink" viewBox="0 0 488.94 455.99">
  <defs>
    <style>
      .cls-1 {
        fill: url(#Eté);
      }

      .cls-2 {
        fill: url(#Eté-2);
      }

      .cls-3 {
        fill: url(#Eté-5);
      }

      .cls-4 {
        fill: url(#Eté-6);
      }

      .cls-5 {
        fill: url(#Eté-3);
      }

      .cls-6 {
        fill: url(#Eté-4);
      }

      .cls-7 {
        fill: url(#Dégradé_sans_nom_28);
      }
    </style>
    <radialGradient id="Dégradé_sans_nom_28" data-name="Dégradé sans nom 28" cx="244.47" cy="228" fx="244.47" fy="228" r="236.38" gradientUnits="userSpaceOnUse">
      <stop offset="0" stop-color="#f7931e"/>
      <stop offset=".15" stop-color="#f39321"/>
      <stop offset=".29" stop-color="#e7942c"/>
      <stop offset=".42" stop-color="#d4973e"/>
      <stop offset=".56" stop-color="#b99a58"/>
      <stop offset=".69" stop-color="#969e79"/>
      <stop offset=".83" stop-color="#6ba3a2"/>
      <stop offset=".96" stop-color="#3aa9d1"/>
      <stop offset="1" stop-color="#29abe2"/>
    </radialGradient>
    <radialGradient id="Eté" cx="480.24" cy="174.46" fx="480.24" fy="174.46" r="5.57" gradientTransform="translate(-43.76 -17.62) scale(1.08)" gradientUnits="userSpaceOnUse">
      <stop offset="0" stop-color="#fff"/>
      <stop offset=".09" stop-color="#ffecd8"/>
      <stop offset=".21" stop-color="#ffd4a7"/>
      <stop offset=".33" stop-color="#ffc07d"/>
      <stop offset=".46" stop-color="#ffb05a"/>
      <stop offset=".59" stop-color="#ffa340"/>
      <stop offset=".72" stop-color="#ff9a2d"/>
      <stop offset=".86" stop-color="#ff9421"/>
      <stop offset="1" stop-color="#ff931e"/>
    </radialGradient>
    <radialGradient id="Eté-2" data-name="Eté" cx="59.03" cy="191.59" fx="59.03" fy="191.59" r="5.57" xlink:href="#Eté"/>
    <radialGradient id="Eté-3" data-name="Eté" cx="260.17" cy="249.88" fx="260.17" fy="249.88" r="5.57" xlink:href="#Eté"/>
    <radialGradient id="Eté-4" data-name="Eté" cx="403.73" cy="425.87" fx="403.73" fy="425.87" r="5.57" xlink:href="#Eté"/>
    <radialGradient id="Eté-5" data-name="Eté" cx="166.09" cy="411.71" fx="166.09" fy="411.71" r="5.57" xlink:href="#Eté"/>
    <radialGradient id="Eté-6" data-name="Eté" cx="282.07" cy="34.64" fx="282.07" fy="34.64" r="5.57" xlink:href="#Eté"/>
  </defs>
  <g id="Calque_1-2" data-name="Calque 1">
    <g>
      <path class="cls-7" d="M404.34,447.24c-18.27,15.54-47.32,6.48-60.3,2.44-38.86-12.12-60.36-43.21-71.61-59.48-15.45-22.35-23.74-44.61-28.33-62.54-6.6,15.47-16.8,38.01-31.09,64.57-9.44,17.55-14.31,26.52-21.52,35.87-3.94,5.11-29.82,25.62-57.64,16.49-24.16-7.93-46.05-28.13-35.63-64.32,8.85-30.75,30.9-50.57,39.39-58.21,14.77-13.27,29.44-21.05,39.53-25.5-20.66,2.51-83.03,7.29-131.54-33.48-19.52-16.4-55.45-55.86-43.05-83.71,12.75-28.61,68.38-26.67,78.92-26.31,56.77,1.98,96.8,37.12,112.41,52.62-11.66-37.55-14.18-69.32-14.35-90.88-.31-40.12-.52-66.83,19.13-88.49C222.57-.04,258.8-.06,263.23,0c6.56.1,29.21.75,50.22,16.74,18.17,13.83,25.11,31.51,28.7,40.66,22.75,57.97-13.25,125.6-19.13,136.32,15.69-8.96,35.95-20.4,59.79-33.48,29.52-16.21,40.59-21.82,57.01-22.28,7.97-.22,32.09-.9,43.44,15.1,10.63,15,3.62,35.58.68,44.2-10.91,32.02-38.66,48.51-55.69,58.64-33.07,19.66-65.93,25.07-88.49,26.31,8.04,7.84,19.76,19.82,32.84,35.41,26.21,31.24,39.41,47.34,43.76,71.05,1.44,7.87,7.67,41.81-12.03,58.56Z"/>
      <polygon class="cls-1" points="476.28 176.16 472.93 173.19 468.6 175.56 470.86 171.36 467.51 168.4 472.25 168.77 474.51 164.58 475.19 169 479.93 169.37 475.61 171.74 476.28 176.16"/>
      <polygon class="cls-2" points="22.41 194.62 19.06 191.65 14.73 194.01 16.99 189.82 13.63 186.86 18.38 187.23 20.64 183.04 21.32 187.46 26.06 187.83 21.73 190.19 22.41 194.62"/>
      <polygon class="cls-5" points="239.14 257.42 235.79 254.46 231.46 256.82 233.72 252.62 230.37 249.66 235.11 250.03 237.37 245.84 238.05 250.26 242.79 250.64 238.47 253 239.14 257.42"/>
      <polygon class="cls-6" points="393.84 447.06 390.49 444.1 386.16 446.46 388.41 442.27 385.06 439.3 389.81 439.67 392.07 435.48 392.74 439.9 397.49 440.28 393.16 442.64 393.84 447.06"/>
      <polygon class="cls-3" points="137.77 431.8 134.42 428.83 130.09 431.2 132.35 427 128.99 424.04 133.74 424.41 136 420.22 136.67 424.64 141.42 425.01 137.09 427.38 137.77 431.8"/>
      <polygon class="cls-4" points="262.74 25.49 259.39 22.53 255.06 24.89 257.32 20.7 253.96 17.73 258.71 18.1 260.97 13.91 261.65 18.33 266.39 18.71 262.06 21.07 262.74 25.49"/>
    </g>
  </g>
</svg>