<?xml version="1.0" encoding="UTF-8"?>
<svg id="Calque_2" data-name="Calque 2" xmlns="http://www.w3.org/2000/svg" xmlns:xlink="http://www.w3.org/1999/xlink" viewBox="0 0 1234.25 298.11">
  <defs>
    <style>
      .cls-1 {
        fill: url(#Eté);
      }

      .cls-2 {
        fill: url(#Eté-2);
      }

      .cls-3 {
        fill: url(#Eté-5);
      }

      .cls-4 {
        fill: url(#Eté-6);
      }

      .cls-5 {
        fill: url(#Eté-3);
      }

      .cls-6 {
        fill: url(#Eté-4);
      }

      .cls-7 {
        fill: url(#Dégradé_sans_nom_28);
      }
    </style>
    <radialGradient id="Dégradé_sans_nom_28" data-name="Dégradé sans nom 28" cx="1167.38" cy="62.36" fx="1167.38" fy="62.36" r="64.66" gradientUnits="userSpaceOnUse">
      <stop offset="0" stop-color="#f7931e"/>
      <stop offset=".15" stop-color="#f39321"/>
      <stop offset=".29" stop-color="#e7942c"/>
      <stop offset=".42" stop-color="#d4973e"/>
      <stop offset=".56" stop-color="#b99a58"/>
      <stop offset=".69" stop-color="#969e79"/>
      <stop offset=".83" stop-color="#6ba3a2"/>
      <stop offset=".96" stop-color="#3aa9d1"/>
      <stop offset="1" stop-color="#29abe2"/>
    </radialGradient>
    <radialGradient id="Eté" cx="1205.65" cy="56.46" fx="1205.65" fy="56.46" r="1.52" gradientTransform="translate(-69.05 -14.23) scale(1.08)" gradientUnits="userSpaceOnUse">
      <stop offset="0" stop-color="#fff"/>
      <stop offset=".09" stop-color="#ffecd8"/>
      <stop offset=".21" stop-color="#ffd4a7"/>
      <stop offset=".33" stop-color="#ffc07d"/>
      <stop offset=".46" stop-color="#ffb05a"/>
      <stop offset=".59" stop-color="#ffa340"/>
      <stop offset=".72" stop-color="#ff9a2d"/>
      <stop offset=".86" stop-color="#ff9421"/>
      <stop offset="1" stop-color="#ff931e"/>
    </radialGradient>
    <radialGradient id="Eté-2" data-name="Eté" cx="1090.44" cy="61.14" fx="1090.44" fy="61.14" r="1.52" xlink:href="#Eté"/>
    <radialGradient id="Eté-3" data-name="Eté" cx="1145.45" cy="77.09" fx="1145.45" fy="77.09" r="1.52" xlink:href="#Eté"/>
    <radialGradient id="Eté-4" data-name="Eté" cx="1184.72" cy="125.23" fx="1184.72" fy="125.23" xlink:href="#Eté"/>
    <radialGradient id="Eté-5" data-name="Eté" cx="1119.72" cy="121.35" fx="1119.72" fy="121.35" r="1.52" xlink:href="#Eté"/>
    <radialGradient id="Eté-6" data-name="Eté" cx="1151.44" cy="18.21" fx="1151.44" fy="18.21" xlink:href="#Eté"/>
  </defs>
  <g id="Calque_1-2" data-name="Calque 1">
    <g>
      <g>
        <path d="M.39,280.45l1.8-1.16c2.5,2.56,4.56,4.27,6.17,5.13,1.61.86,3.28,1.29,5,1.29,2.03,0,3.59-.51,4.69-1.52,1.09-1.01,1.89-2.47,2.38-4.37.49-1.9.82-6.04.98-12.4.31-12.55.47-19.51.47-20.88v-69.86c0-7.67-.09-14.59-.27-20.74-.18-6.16-.48-9.8-.9-10.93-.21-.59-.55-1.07-1.02-1.43-.68-.54-1.69-.86-3.05-.98l-10.62-.45v-7.85c10.05.42,20.21.62,30.47.62,8.59,0,15.96-.21,22.11-.62v7.76c-5.31.18-8.49.36-9.53.54-1.35.3-2.36.86-3.01,1.7-.65.83-1.05,2.35-1.21,4.55-.37,4.88-.55,11.69-.55,20.43v32.48l.16,38.1c0,9.64-.77,17.31-2.3,23.02-1.54,5.71-4.08,11.09-7.62,16.15-2.45,3.45-5.4,6.71-8.87,9.77-3.46,3.06-6.85,5.38-10.16,6.96-3.31,1.58-6.37,2.36-9.18,2.36-2.03,0-4.14-.45-6.33-1.34.26-4.1.39-9.55.39-16.33Z"/>
        <path d="M66.56,141.7v-7.41l25.39.54,10.55-.18,10.55-.27,2.89-.09v7.41c-5.62,0-9.19.57-10.7,1.7-.78.54-1.3,1.58-1.56,3.12-.73,3.69-1.09,11.81-1.09,24.36v20.7l.08,10.44c0,10.89.1,17.61.31,20.16.47,5.59,1.69,10.1,3.67,13.52,1.98,3.42,5.01,6.19,9.1,8.3,4.09,2.11,9.28,3.17,15.59,3.17,7.24,0,13.01-1.41,17.3-4.24,4.3-2.82,7.36-6.5,9.18-11.02,1.82-4.52,2.73-13.12,2.73-25.79v-18.2c0-15.7-.03-25.28-.08-28.73-.16-7.49-.52-12.01-1.09-13.56-.37-.95-.96-1.66-1.8-2.14-1.72-1.01-5.47-1.61-11.25-1.78v-7.41c9.43.42,15.03.62,16.8.62.47,0,1.17-.03,2.11-.09l17.34-.54v7.41c-4.84,0-7.89.45-9.14,1.34-.62.48-1.13,1.38-1.52,2.72s-.77,7.36-1.13,18.07c-.37,10.71-.55,19.15-.55,25.34v20.97c0,5.35-.34,10.89-1.02,16.6-.68,5.71-2.04,10.59-4.1,14.63-2.06,4.05-4.96,7.7-8.71,10.97-3.75,3.27-8.2,5.74-13.36,7.41-5.16,1.67-11.12,2.5-17.89,2.5-7.92,0-15.31-1.22-22.19-3.66-5-1.78-9.09-4.18-12.27-7.18-3.18-3-5.6-6.36-7.27-10.08-1.67-3.72-2.68-7.3-3.05-10.75-.26-2.14-.39-7.91-.39-17.31l.08-17.13v-22.66c0-8.33-.16-15.82-.47-22.48-.16-2.62-.47-4.52-.94-5.71-.26-.65-.91-1.43-1.95-2.32l-10.16-1.25Z"/>
        <path d="M197.42,259.12v-4.55c1.35-.65,3.25-1.81,5.7-3.48,1.09-.71,1.8-1.31,2.11-1.78.21-.3.34-.62.39-.98.26-1.49.49-6.79.7-15.93.21-9.13.31-20.09.31-32.88,0-18.8-.05-30.4-.16-34.8-.21-11.18-.55-17.58-1.02-19.18-.21-.71-.6-1.25-1.17-1.61-1.2-.89-5.18-1.49-11.95-1.78v-7.85c6.61.36,14.17.54,22.66.54,9.48,0,18.46-.18,26.95-.54v7.85c-5.89.3-9.48.83-10.78,1.61-.57.36-.99.94-1.25,1.74-.26.8-.51,4.48-.74,11.02-.23,6.54-.35,14.81-.35,24.8,0,1.07.03,9.67.08,25.79.05,8.51.09,16.94.12,25.3.03,8.36.06,13.43.12,15.21,7.19.36,12.08.54,14.69.54,7.92,0,14.82-.54,20.7-1.61,2.13-.36,3.41-.74,3.83-1.16.42-.41.86-1.52,1.33-3.3,1.04-4.52,2.06-9.69,3.05-15.52h6.48c-.16,1.67-.23,2.65-.23,2.94l-1.95,18.02c-.42,5.65-.65,9.04-.7,10.17-1.51.48-3.02.8-4.53.98-3.18.3-8.1.45-14.77.45-.94,0-7.06-.15-18.36-.45-8.59-.24-14.58-.36-17.97-.36-5.1,0-12.87.27-23.28.8Z"/>
        <path d="M294.06,259.12v-4.82c3.12-1.66,5.68-3.39,7.66-5.18.31-2.5.57-6.54.78-12.13.42-10.23.62-17.67.62-22.31v-40.15c0-1.55-.08-7.35-.23-17.4-.16-6.72-.52-10.83-1.09-12.31-.26-.59-.65-1.04-1.17-1.34-1.41-.71-5.16-1.25-11.25-1.61v-7.58l18.12.45c3.59.06,7.03.09,10.31.09,7.13,0,15.08-.09,23.83-.27l15.86-.45c1.88,0,5.68.12,11.41.36.52,0,1.38.18,2.58.54l.55,1.16-1.48,12.85c-.05.89-.31,5.18-.78,12.85h-6.09c-.1-7.02-.34-11.33-.7-12.94-.21-.83-.52-1.43-.94-1.78-.68-.54-2.76-1.01-6.25-1.43-5.16-.65-10.21-.98-15.16-.98-4.64,0-9.38.21-14.22.62-.73,6.72-1.09,15.26-1.09,25.61v18.29c3.54.3,7.24.45,11.09.45,1.2,0,5.52-.12,12.97-.36,2.81-.06,4.47-.27,4.96-.62.49-.36.87-.98,1.13-1.87.62-2.26.99-6.04,1.09-11.33h6.33l-.31,19.63.31,19.54h-6.72c.05-6.9-.34-11.15-1.17-12.76-.62-1.19-1.75-1.93-3.36-2.23-3.59-.65-8.2-.98-13.83-.98-5.05,0-9.22.18-12.5.54v37.83c0,4.22.08,7.85.23,10.89,4.22.36,9.22.54,15,.54s10.82-.21,15.59-.62c4.77-.41,7.7-1.01,8.79-1.78.36-.24.7-.77,1.02-1.61.94-2.86,1.93-8.27,2.97-16.24h6.41c-1.15,11.78-1.72,21.47-1.72,29.09l-1.02,1.16c-3.33.42-8.07.62-14.22.62l-12.58-.27c-12.4-.18-20.94-.27-25.62-.27-1.25,0-9.95.18-26.09.54Z"/>
        <path d="M462.73,166.95h-6.56c-.1-6.9-.37-11.78-.78-14.63-1.62-2.62-4.41-4.94-8.4-6.96-3.98-2.02-8.45-3.03-13.4-3.03-7.08,0-12.57,2.04-16.45,6.11-3.88,4.08-5.82,8.85-5.82,14.32.05,3.93.62,7.11,1.72,9.55,1.09,2.44,2.66,4.37,4.69,5.8s5.03,2.74,8.98,3.93c3.02.71,7.23,1.61,12.62,2.68s8.89,1.82,10.51,2.23c4.22,1.25,7.63,2.75,10.23,4.51,2.6,1.76,4.67,3.78,6.21,6.07,1.54,2.29,2.8,5.18,3.79,8.65.99,3.48,1.48,7.39,1.48,11.73,0,7.61-1.38,14.31-4.14,20.08-2.08,4.34-4.97,8.31-8.67,11.91-3.7,3.6-7.5,6.29-11.41,8.07-6.25,2.86-13.75,4.28-22.5,4.28-6.41,0-12.11-.68-17.11-2.05s-10.5-3.72-16.48-7.05c1.61-6.78,2.45-17.1,2.5-30.96h6.56c-.1,4.28.18,9.61.86,15.97,1.98,3.69,5.36,6.93,10.16,9.73,4.79,2.8,10.03,4.19,15.7,4.19,4.95,0,9.36-.99,13.24-2.99,3.88-1.99,6.69-4.74,8.44-8.25,1.74-3.51,2.62-7.49,2.62-11.96,0-3.75-.61-6.96-1.84-9.64-1.22-2.68-3.14-4.82-5.74-6.42-2.6-1.61-7.19-3.27-13.75-5-9.43-2.26-15.62-3.9-18.59-4.91-4.48-1.55-8.09-3.78-10.82-6.69-2.73-2.91-4.78-6.44-6.13-10.57-1.35-4.13-2.03-8.58-2.03-13.34,0-6.66,1.22-12.8,3.67-18.42,2.45-5.62,5.68-9.98,9.69-13.07,4.01-3.09,8.54-5.31,13.59-6.65,5.05-1.34,10.23-2.01,15.55-2.01s10.87.57,16.05,1.7c5.18,1.13,9.67,2.77,13.48,4.91l.62,2.14c-.73,3.87-1.26,7.66-1.6,11.38-.34,3.72-.59,8.61-.74,14.68Z"/>
        <path d="M600.47,166.95h-6.56c-.1-6.9-.37-11.78-.78-14.63-1.62-2.62-4.41-4.94-8.4-6.96-3.98-2.02-8.45-3.03-13.4-3.03-7.08,0-12.57,2.04-16.45,6.11-3.88,4.08-5.82,8.85-5.82,14.32.05,3.93.62,7.11,1.72,9.55,1.09,2.44,2.66,4.37,4.69,5.8s5.03,2.74,8.98,3.93c3.02.71,7.23,1.61,12.62,2.68s8.89,1.82,10.51,2.23c4.22,1.25,7.63,2.75,10.23,4.51,2.6,1.76,4.67,3.78,6.21,6.07,1.54,2.29,2.8,5.18,3.79,8.65.99,3.48,1.48,7.39,1.48,11.73,0,7.61-1.38,14.31-4.14,20.08-2.08,4.34-4.97,8.31-8.67,11.91-3.7,3.6-7.5,6.29-11.41,8.07-6.25,2.86-13.75,4.28-22.5,4.28-6.41,0-12.11-.68-17.11-2.05s-10.5-3.72-16.48-7.05c1.61-6.78,2.45-17.1,2.5-30.96h6.56c-.1,4.28.18,9.61.86,15.97,1.98,3.69,5.36,6.93,10.16,9.73,4.79,2.8,10.03,4.19,15.7,4.19,4.95,0,9.36-.99,13.24-2.99,3.88-1.99,6.69-4.74,8.44-8.25,1.74-3.51,2.62-7.49,2.62-11.96,0-3.75-.61-6.96-1.84-9.64-1.22-2.68-3.14-4.82-5.74-6.42-2.6-1.61-7.19-3.27-13.75-5-9.43-2.26-15.62-3.9-18.59-4.91-4.48-1.55-8.09-3.78-10.82-6.69-2.73-2.91-4.78-6.44-6.13-10.57-1.35-4.13-2.03-8.58-2.03-13.34,0-6.66,1.22-12.8,3.67-18.42,2.45-5.62,5.68-9.98,9.69-13.07,4.01-3.09,8.54-5.31,13.59-6.65,5.05-1.34,10.23-2.01,15.55-2.01s10.87.57,16.05,1.7c5.18,1.13,9.67,2.77,13.48,4.91l.62,2.14c-.73,3.87-1.26,7.66-1.6,11.38-.34,3.72-.59,8.61-.74,14.68Z"/>
        <path d="M645.78,259.12v-7.32c6.25-.24,9.96-.71,11.13-1.43s1.96-1.9,2.38-3.57c.57-2.56.86-10.26.86-23.11v-53.45c0-14.57-.08-22.72-.23-24.45h-11.17c-5.62,0-10.57.21-14.84.62-1.72.18-2.71.42-2.97.71-.37.36-.68,1.4-.94,3.12-.68,4.16-1.07,8.83-1.17,14.01h-6.48c-.21-12.19-.34-19.06-.39-20.61-.16-2.62-.42-5.44-.78-8.48l.7-.89c2.45.3,5.05.51,7.81.62,4.48.18,13.1.27,25.86.27h31.56c13.12,0,21.9-.09,26.33-.27,2.39-.12,4.82-.33,7.27-.62l.78.89c-.47,3.63-.76,6.81-.86,9.55-.05.48-.16,6.99-.31,19.54h-6.48c-.11-4.64-.44-9.07-1.02-13.29-.31-2.14-.65-3.42-1.02-3.84-.31-.3-1.15-.5-2.5-.62-4.27-.48-9.4-.71-15.39-.71h-11.17c-.16,2.08-.23,10.23-.23,24.45v53.45c0,12.85.29,20.58.86,23.2.36,1.55,1.14,2.69,2.34,3.44,1.2.75,4.92,1.24,11.17,1.47v7.32c-10.11-.54-18.62-.8-25.55-.8-7.4,0-15.91.27-25.55.8Z"/>
        <path d="M728.67,141.7v-7.41l25.39.54,10.55-.18,10.55-.27,2.89-.09v7.41c-5.62,0-9.19.57-10.7,1.7-.78.54-1.3,1.58-1.56,3.12-.73,3.69-1.09,11.81-1.09,24.36v20.7l.08,10.44c0,10.89.1,17.61.31,20.16.47,5.59,1.69,10.1,3.67,13.52,1.98,3.42,5.01,6.19,9.1,8.3,4.09,2.11,9.28,3.17,15.59,3.17,7.24,0,13.01-1.41,17.3-4.24,4.3-2.82,7.36-6.5,9.18-11.02,1.82-4.52,2.73-13.12,2.73-25.79v-18.2c0-15.7-.03-25.28-.08-28.73-.16-7.49-.52-12.01-1.09-13.56-.37-.95-.96-1.66-1.8-2.14-1.72-1.01-5.47-1.61-11.25-1.78v-7.41c9.43.42,15.03.62,16.8.62.47,0,1.17-.03,2.11-.09l17.34-.54v7.41c-4.84,0-7.89.45-9.14,1.34-.62.48-1.13,1.38-1.52,2.72s-.77,7.36-1.13,18.07c-.37,10.71-.55,19.15-.55,25.34v20.97c0,5.35-.34,10.89-1.02,16.6-.68,5.71-2.04,10.59-4.1,14.63-2.06,4.05-4.96,7.7-8.71,10.97-3.75,3.27-8.2,5.74-13.36,7.41-5.16,1.67-11.12,2.5-17.89,2.5-7.92,0-15.31-1.22-22.19-3.66-5-1.78-9.09-4.18-12.27-7.18-3.18-3-5.6-6.36-7.27-10.08-1.67-3.72-2.68-7.3-3.05-10.75-.26-2.14-.39-7.91-.39-17.31l.08-17.13v-22.66c0-8.33-.16-15.82-.47-22.48-.16-2.62-.47-4.52-.94-5.71-.26-.65-.91-1.43-1.95-2.32l-10.16-1.25Z"/>
        <path d="M859.06,259.12v-4.28c.42-.3,1.14-.77,2.19-1.43,1.98-1.25,3.8-2.56,5.47-3.93.57-7.97.86-20.91.86-38.81v-14.63c0-7.85-.13-19.36-.39-34.53-.16-8.39-.5-13.74-1.02-16.06-.16-.54-.37-.95-.62-1.25-.42-.48-1.07-.83-1.95-1.07-.89-.24-4.17-.77-9.84-1.61v-7.23l28.36.54c3.33,0,9.61-.15,18.83-.45,6.67-.18,12-.27,16.02-.27,9.22,0,16.6.64,22.15,1.92,5.55,1.28,10.38,3.33,14.49,6.16,4.11,2.83,7.59,6.17,10.43,10.04,2.84,3.87,4.99,8.03,6.45,12.49,2.45,7.49,3.67,15.7,3.67,24.63,0,11.36-1.82,21.5-5.47,30.43-3.65,8.92-8.66,16.39-15.04,22.39-6.38,6.01-13.29,10.34-20.74,12.98-7.45,2.65-16.43,3.97-26.95,3.97l-23.2-.54-23.67.54ZM890.31,248.24c4.84.83,9.48,1.25,13.91,1.25,6.93,0,13.07-.83,18.44-2.5,3.96-1.25,7.42-3.06,10.39-5.44,2.97-2.38,5.82-5.89,8.55-10.53,2.73-4.64,4.86-10.17,6.37-16.6,1.51-6.42,2.27-13.35,2.27-20.79,0-6.78-.76-13.34-2.27-19.67-1.51-6.33-3.98-11.88-7.42-16.64-3.44-4.76-7.79-8.21-13.05-10.35-5.26-2.14-13.23-3.21-23.91-3.21-4.01,0-8.44.39-13.28,1.16-.52,8.45-.78,24.36-.78,47.74v20.52c0,17.73.26,29.41.78,35.06Z"/>
        <path d="M1039.3,134.3v7.85c-5.26.18-8.39.4-9.38.67-.99.27-1.69.6-2.11.98-.42.39-.7.88-.86,1.47-.37,1.01-.62,2.94-.78,5.8-.11,1.55-.18,4.46-.23,8.74-.21,14.63-.31,22.52-.31,23.64v35.96l.23,16.33c0,6.13.26,10.11.78,11.96.21.83.56,1.47,1.05,1.92.49.45,1.28.8,2.34,1.07,1.07.27,4.15.46,9.26.58v7.85c-8.49-.36-17.55-.54-27.19-.54-8.39,0-15.86.18-22.42.54v-7.85c5.42-.24,8.54-.45,9.38-.62,1.09-.24,1.84-.56,2.23-.98.39-.41.64-.89.74-1.43.16-.71.36-3.51.62-8.39.42-7.14.62-13.74.62-19.81v-37.3c0-11.84-.05-19.45-.16-22.84-.26-7.55-.57-12.28-.94-14.19-.16-.77-.4-1.37-.74-1.78-.34-.42-.96-.76-1.88-1.03-.91-.27-4.21-.52-9.88-.76v-7.85c6.56.36,14.09.54,22.58.54,9.53,0,18.54-.18,27.03-.54Z"/>
        <path d="M1052.81,198.18c0-10.89,1.45-20.37,4.34-28.46,2.89-8.09,7.02-14.96,12.38-20.61,5.36-5.65,11.2-9.73,17.5-12.22,8.07-3.15,16.88-4.73,26.41-4.73s18.07,1.52,25.78,4.55c5.73,2.32,10.79,5.67,15.2,10.04,4.4,4.37,7.75,8.85,10.04,13.43,2.29,4.58,4.02,9.61,5.2,15.08,1.17,5.47,1.76,11.51,1.76,18.11,0,11.18-1.69,21.56-5.08,31.14-2.5,7.14-6.16,13.47-10.98,19-4.82,5.53-10.3,9.79-16.45,12.76-8.44,3.99-18.07,5.98-28.91,5.98-11.72,0-21.79-2.42-30.2-7.27-8.41-4.85-15.01-12-19.8-21.46-4.79-9.46-7.19-21.24-7.19-35.33ZM1076.87,192.92c0,13.86,1.67,25.33,5,34.4,3.33,9.07,7.6,15.48,12.81,19.23,5.21,3.75,11.35,5.62,18.44,5.62,6.56,0,12.43-1.78,17.62-5.35,5.18-3.57,9.24-9.61,12.19-18.11,2.94-8.51,4.41-18.83,4.41-30.96,0-8.33-.79-15.94-2.38-22.84-1.59-6.9-3.87-12.77-6.84-17.62-2.97-4.85-6.47-8.55-10.51-11.11-4.04-2.56-9.39-3.84-16.05-3.84-7.61,0-14.08,2.04-19.41,6.11-5.34,4.08-9.22,10.1-11.64,18.07-2.42,7.97-3.63,16.77-3.63,26.41Z"/>
      </g>
      <g>
        <path class="cls-7" d="M1211.11,122.33c-5,4.25-12.94,1.77-16.49.67-10.63-3.31-16.51-11.82-19.59-16.27-4.23-6.11-6.49-12.2-7.75-17.11-1.8,4.23-4.6,10.4-8.5,17.66-2.58,4.8-3.91,7.25-5.89,9.81-1.08,1.4-8.16,7.01-15.77,4.51-6.61-2.17-12.6-7.69-9.75-17.59,2.42-8.41,8.45-13.83,10.77-15.92,4.04-3.63,8.05-5.76,10.81-6.97-5.65.69-22.71,1.99-35.98-9.16-5.34-4.49-15.17-15.28-11.78-22.9,3.49-7.83,18.7-7.3,21.59-7.2,15.53.54,26.48,10.15,30.75,14.39-3.19-10.27-3.88-18.96-3.93-24.86-.08-10.97-.14-18.28,5.23-24.2C1161.39-.01,1171.3-.02,1172.51,0c1.8.03,7.99.2,13.74,4.58,4.97,3.78,6.87,8.62,7.85,11.12,6.22,15.86-3.62,34.35-5.23,37.29,4.29-2.45,9.83-5.58,16.35-9.16,8.07-4.43,11.1-5.97,15.59-6.09,2.18-.06,8.78-.25,11.88,4.13,2.91,4.1.99,9.73.19,12.09-2.98,8.76-10.57,13.27-15.23,16.04-9.05,5.38-18.03,6.86-24.2,7.2,2.2,2.14,5.41,5.42,8.98,9.69,7.17,8.54,10.78,12.95,11.97,19.44.39,2.15,2.1,11.44-3.29,16.02Z"/>
        <polygon class="cls-1" points="1230.78 48.18 1229.87 47.37 1228.68 48.02 1229.3 46.87 1228.38 46.06 1229.68 46.16 1230.3 45.02 1230.48 46.23 1231.78 46.33 1230.6 46.97 1230.78 48.18"/>
        <polygon class="cls-2" points="1106.64 53.23 1105.72 52.42 1104.54 53.07 1105.15 51.92 1104.24 51.11 1105.54 51.21 1106.15 50.07 1106.34 51.28 1107.64 51.38 1106.45 52.02 1106.64 53.23"/>
        <polygon class="cls-5" points="1165.92 70.41 1165 69.6 1163.82 70.25 1164.44 69.1 1163.52 68.29 1164.82 68.39 1165.44 67.24 1165.62 68.45 1166.92 68.56 1165.73 69.2 1165.92 70.41"/>
        <polygon class="cls-6" points="1208.23 122.28 1207.32 121.47 1206.13 122.12 1206.75 120.97 1205.83 120.16 1207.13 120.26 1207.75 119.12 1207.93 120.33 1209.23 120.43 1208.05 121.07 1208.23 122.28"/>
        <polygon class="cls-3" points="1138.19 118.11 1137.27 117.3 1136.09 117.94 1136.71 116.8 1135.79 115.99 1137.09 116.09 1137.71 114.94 1137.89 116.15 1139.19 116.25 1138.01 116.9 1138.19 118.11"/>
        <polygon class="cls-4" points="1172.38 6.97 1171.46 6.16 1170.27 6.81 1170.89 5.66 1169.97 4.85 1171.27 4.95 1171.89 3.81 1172.08 5.02 1173.37 5.12 1172.19 5.76 1172.38 6.97"/>
      </g>
    </g>
  </g>
</svg>